<svg version="1.1" id="Capa_1" xmlns="http://www.w3.org/2000/svg" x="0" y="0" viewBox="0 0 512 341.3"
     xml:space="preserve"><style>.st0{fill:#f0f0f0}.st1{fill:#d80027}.st2{fill:#0052b4}</style>
    <path class="st0" d="M0 0h512v341.3H0z"/>
    <path class="st1" d="M288 0h-64v138.7H0v64h224v138.6h64V202.7h224v-64H288z"/>
    <path class="st2" d="M393.8 230 512 295.7V230zM311.7 230 512 341.3v-31.4L368.3 230zM458.6 341.3l-146.9-81.6v81.6z"/>
    <path class="st0" d="M311.7 230 512 341.3v-31.4L368.3 230z"/>
    <path class="st1" d="M311.7 230 512 341.3v-31.4L368.3 230z"/>
    <path class="st2" d="M90.3 230 0 280.2V230zM200.3 244.2v97.1H25.5z"/>
    <path class="st1" d="M143.7 230 0 309.9v31.4L200.3 230z"/>
    <path class="st2" d="M118.2 111.3 0 45.6v65.7zM200.3 111.3 0 0v31.5l143.7 79.8zM53.4 0l146.9 81.7V0z"/>
    <path class="st0" d="M200.3 111.3 0 0v31.5l143.7 79.8z"/>
    <path class="st1" d="M200.3 111.3 0 0v31.5l143.7 79.8z"/>
    <g><path class="st2" d="M421.7 111.3 512 61.1v50.2zM311.7 97.1V0h174.8z"/></g>
    <path class="st1" d="M368.3 111.3 512 31.5V0L311.7 111.3z"/></svg>